<svg width="120" height="200" viewBox="0 0 120 200" xmlns="http://www.w3.org/2000/svg">
  <defs>
    <!-- Blue gradient for liquid -->
    <linearGradient id="blueGradient" x1="0%" y1="0%" x2="100%" y2="0%">
      <stop offset="0%" style="stop-color:#1e3a8a;stop-opacity:0.9" />
      <stop offset="50%" style="stop-color:#0000ff;stop-opacity:0.8" />
      <stop offset="100%" style="stop-color:#3b82f6;stop-opacity:0.9" />
    </linearGradient>
    <!-- Shadow filter -->
    <filter id="shadow" x="-20%" y="-20%" width="140%" height="140%">
      <dropShadow dx="2" dy="4" stdDeviation="3" flood-color="#000000" flood-opacity="0.15"/>
    </filter>
    <!-- Cap gradient -->
    <linearGradient id="capGradient" x1="0%" y1="0%" x2="100%" y2="100%">
      <stop offset="0%" style="stop-color:#0866a8;stop-opacity:1" />
      <stop offset="100%" style="stop-color:#0654a3;stop-opacity:1" />
    </linearGradient>
  </defs>
  
  <!-- Vial body background -->
  <rect x="25" y="40" width="70" height="140" rx="8" ry="8" 
        fill="#f8f9fa" 
        stroke="#dee2e6" 
        stroke-width="2" 
        filter="url(#shadow)"/>
  
  <!-- Blue liquid -->
  <rect x="27" y="50" width="66" height="120" rx="6" ry="6" 
        fill="url(#blueGradient)"/>
  
  <!-- Vial cap/closure -->
  <rect x="20" y="20" width="80" height="25" rx="4" ry="4" 
        fill="url(#capGradient)" 
        stroke="#0654a3" 
        stroke-width="1"/>
  
  <!-- Cap detail line -->
  <line x1="20" y1="32" x2="100" y2="32" 
        stroke="#ffffff" 
        stroke-width="1" 
        opacity="0.6"/>
  
  <!-- Highlight on vial body -->
  <rect x="30" y="45" width="4" height="130" rx="2" ry="2" 
        fill="#ffffff" 
        opacity="0.5"/>
  
  <!-- Liquid surface reflection -->
  <ellipse cx="60" cy="55" rx="30" ry="3" 
           fill="#6366f1" 
           opacity="0.4"/>
  
  <!-- Volume markings -->
  <g stroke="#6c757d" stroke-width="0.8" opacity="0.6">
    <line x1="88" y1="60" x2="95" y2="60"/>
    <line x1="88" y1="80" x2="92" y2="80"/>
    <line x1="88" y1="100" x2="95" y2="100"/>
    <line x1="88" y1="120" x2="92" y2="120"/>
    <line x1="88" y1="140" x2="95" y2="140"/>
    <line x1="88" y1="160" x2="92" y2="160"/>
  </g>
</svg>